# xmcd
#
# Track frame offsets:
#	150
#	17713
#	33351
#	57240
#	77416
#	92866
#	115146
#	136184
#	158984
#	174617
#
# Disc length: 2577 seconds
#
# Revision: 3
# Processed by: cddbd v1.4PL0 Copyright (c) Steve Scherf et al.
# Submitted via: audiograbber 1.81.02
#
DISCID=760a0f0a
DTITLE=Chuck Roberson - I'm Your Candy Man
DYEAR=2001
DGENRE=Blues
TTITLE0=Candy Man
TTITLE1=I Hit The Jackpot
TTITLE2=You Put Me In The Mood
TTITLE3=Porno Star
TTITLE4=Lollipop Woman
TTITLE5=Let's Set A Date
TTITLE6=Down Home Blues Show
TTITLE7=Love Seat 2001
TTITLE8=Check Up On My Good Thang
TTITLE9=Are You Just Making Love
EXTD=
EXTT0=
EXTT1=
EXTT2=
EXTT3=
EXTT4=
EXTT5=
EXTT6=
EXTT7=
EXTT8=
EXTT9=
PLAYORDER=
